<?xml version="1.0" standalone="no"?>
<!DOCTYPE svg PUBLIC "-//W3C//DTD SVG 20010904//EN"
 "http://www.w3.org/TR/2001/REC-SVG-20010904/DTD/svg10.dtd">
<svg version="1.0" xmlns="http://www.w3.org/2000/svg"
 width="64.000000pt" height="64.000000pt" viewBox="0 0 64.000000 64.000000"
 preserveAspectRatio="xMidYMid meet">

<g transform="translate(0.000000,58.000000) scale(0.130000,-0.130000)"
fill="#000000" stroke="none">
<path d="M191 336 c-31 -31 -31 -34 -16 -62 20 -38 19 -56 -2 -52 -12 2 -20
16 -24 38 -6 34 -6 33 -8 -11 0 -25 -6 -50 -11 -55 -6 -6 -8 -19 -4 -29 6 -16
8 -15 20 6 7 13 10 27 8 31 -3 4 2 5 11 2 9 -4 13 -9 10 -12 -2 -3 4 -12 16
-20 25 -18 37 -8 21 18 -7 11 -12 29 -12 40 0 18 3 19 21 9 19 -10 20 -8 14
10 -5 15 -2 21 9 21 26 0 31 -4 29 -25 -3 -19 -2 -19 11 -2 11 14 15 15 19 5
3 -7 6 0 6 15 1 16 8 30 18 34 14 5 13 8 -6 15 -14 5 -19 12 -15 20 5 8 2 9
-9 5 -11 -4 -17 -1 -17 8 0 18 -16 20 -26 3 -5 -8 -11 -6 -19 5 -10 15 -15 13
-44 -17z m-48 -151 c-3 -9 -8 -14 -10 -11 -3 3 -2 9 2 15 9 16 15 13 8 -4z"/>
<path d="M161 263 c-1 -12 4 -25 9 -28 12 -7 12 2 0 30 -8 19 -9 19 -9 -2z"/>
<path d="M227 154 c-10 -13 -15 -29 -12 -34 9 -15 -6 -12 -26 6 -15 14 -18 12
-28 -17 -15 -43 -14 -45 9 -45 11 0 20 4 20 8 0 4 17 8 38 8 23 0 32 -3 24 -8
-17 -12 -4 -42 18 -42 17 0 18 2 4 28 -23 44 -18 60 19 65 21 2 13 4 -22 5
-48 2 -53 4 -37 15 11 8 17 19 15 24 -2 6 -12 0 -22 -13z"/>
</g>
</svg>
