<?xml version="1.0" standalone="no"?>
<!DOCTYPE svg PUBLIC "-//W3C//DTD SVG 20010904//EN"
 "http://www.w3.org/TR/2001/REC-SVG-20010904/DTD/svg10.dtd">
<svg version="1.0" xmlns="http://www.w3.org/2000/svg"
 width="64.000000pt" height="64.000000pt" viewBox="0 0 64.000000 64.000000"
 preserveAspectRatio="xMidYMid meet">

<g transform="translate(0.000000,58.000000) scale(0.130000,-0.130000)"
fill="#000000" stroke="none">
<path d="M193 354 c-29 -33 -30 -37 -17 -62 19 -36 18 -54 -3 -50 -12 2 -20
16 -23 38 -5 31 -7 27 -12 -25 -6 -72 -1 -93 17 -68 7 10 11 22 7 27 -3 5 -9
1 -13 -10 -6 -16 -8 -16 -8 -2 -1 9 3 19 7 22 13 8 52 -23 52 -40 0 -8 5 -14
10 -14 6 0 10 9 10 19 0 11 -4 23 -10 26 -5 3 -10 17 -10 31 0 22 2 24 21 13
20 -10 21 -9 16 10 -3 14 0 21 9 21 26 0 29 -3 26 -24 -2 -20 -2 -20 12 -3 10
14 15 15 19 5 3 -7 6 0 6 15 1 16 8 30 18 34 14 5 13 8 -6 15 -14 5 -19 12
-15 20 5 8 2 9 -9 5 -11 -4 -17 -1 -17 8 0 18 -16 20 -26 3 -5 -8 -10 -6 -19
5 -10 13 -15 11 -42 -19z"/>
<path d="M161 283 c-1 -12 4 -25 9 -28 12 -7 12 2 0 30 -8 19 -9 19 -9 -2z"/>
<path d="M231 169 c-6 -17 -8 -35 -5 -40 8 -14 -9 -10 -30 6 -22 17 -36 11
-36 -15 0 -20 19 -30 55 -30 15 0 26 -7 30 -20 7 -21 30 -27 40 -10 3 6 1 10
-4 10 -6 0 -11 8 -11 18 0 14 -7 18 -27 17 -19 -2 -21 -1 -5 2 12 2 22 8 22
13 0 5 17 11 38 13 35 3 34 4 -10 5 -46 2 -46 2 -42 32 7 39 -1 38 -15 -1z"/>
<path d="M120 60 c0 -17 3 -19 19 -8 21 13 19 28 -5 28 -8 0 -14 -9 -14 -20z"/>
</g>
</svg>
