<?xml version="1.0" standalone="no"?>
<!DOCTYPE svg PUBLIC "-//W3C//DTD SVG 20010904//EN"
 "http://www.w3.org/TR/2001/REC-SVG-20010904/DTD/svg10.dtd">
<svg version="1.0" xmlns="http://www.w3.org/2000/svg"
 width="64.000000pt" height="64.000000pt" viewBox="0 0 64.000000 64.000000"
 preserveAspectRatio="xMidYMid meet">

<g transform="translate(0.000000,58.000000) scale(0.130000,-0.130000)"
fill="#000000" stroke="none">
<path d="M193 344 c-29 -33 -30 -37 -17 -62 19 -36 18 -54 -3 -50 -12 2 -20
16 -24 38 -6 32 -6 30 -8 -15 0 -27 4 -57 10 -65 8 -12 9 -9 5 10 -3 14 -3 19
0 12 3 -6 10 -10 15 -6 5 3 14 -6 21 -20 6 -14 15 -26 20 -26 11 0 10 38 -2
45 -5 3 -10 17 -10 31 0 22 2 24 21 13 20 -10 21 -9 16 10 -3 14 0 21 9 21 26
0 29 -3 26 -24 -2 -19 -2 -20 11 -4 8 10 17 15 20 11 4 -3 7 1 7 10 0 8 7 22
15 30 12 13 12 16 -6 20 -14 4 -18 10 -13 18 5 9 2 10 -9 6 -11 -4 -17 -1 -17
8 0 18 -16 20 -26 3 -5 -8 -10 -6 -19 5 -10 13 -15 11 -42 -19z"/>
<path d="M161 273 c-1 -12 4 -25 9 -28 12 -7 12 2 0 30 -8 19 -9 19 -9 -2z"/>
<path d="M172 180 c0 -14 2 -19 5 -12 2 6 2 18 0 25 -3 6 -5 1 -5 -13z"/>
<path d="M227 159 c-9 -17 -15 -35 -11 -40 8 -13 -10 -11 -24 3 -6 6 -14 9
-17 6 -10 -9 6 -78 16 -72 5 3 7 9 4 14 -7 11 2 16 45 25 l35 6 -35 -18 c-41
-21 -53 -53 -20 -53 19 0 20 2 10 15 -10 13 -9 15 8 15 22 0 47 34 37 50 -3 5
7 11 22 13 17 2 9 5 -20 6 l-48 1 21 30 c15 21 17 30 8 30 -7 0 -21 -14 -31
-31z"/>
</g>
</svg>
