<?xml version="1.0" standalone="no"?>
<!DOCTYPE svg PUBLIC "-//W3C//DTD SVG 20010904//EN"
 "http://www.w3.org/TR/2001/REC-SVG-20010904/DTD/svg10.dtd">
<svg version="1.0" xmlns="http://www.w3.org/2000/svg"
 width="64.000000pt" height="64.000000pt" viewBox="0 0 64.000000 64.000000"
 preserveAspectRatio="xMidYMid meet">

<g transform="translate(0.000000,58.000000) scale(0.130000,-0.130000)"
fill="#000000" stroke="none">
<path d="M198 344 c-36 -32 -37 -34 -23 -61 20 -37 19 -55 -2 -51 -12 2 -20
16 -24 38 l-6 35 -2 -38 c0 -21 -5 -46 -10 -56 -6 -10 -6 -23 0 -32 7 -12 9
-12 10 1 1 8 1 19 0 24 -1 5 6 3 15 -5 12 -9 15 -9 10 -1 -12 19 5 14 31 -10
19 -18 23 -19 23 -5 0 9 -4 19 -10 22 -5 3 -10 17 -10 31 0 22 2 24 21 13 20
-10 21 -9 16 10 -3 14 0 21 9 21 24 0 29 -4 26 -25 -2 -19 -2 -19 12 -2 10 14
15 15 19 5 3 -7 6 0 6 15 1 16 8 30 18 34 14 5 13 8 -6 15 -14 5 -19 12 -15
20 5 8 2 9 -9 5 -11 -4 -14 -2 -10 9 6 17 -13 19 -23 2 -5 -8 -10 -7 -18 4
-10 14 -17 11 -48 -18z"/>
<path d="M161 273 c-1 -12 4 -25 9 -28 12 -7 12 2 0 30 -8 19 -9 19 -9 -2z"/>
<path d="M255 150 c-3 -5 -3 -14 0 -20 8 -14 1 -13 -42 5 -38 16 -52 9 -53
-22 0 -7 -7 -13 -15 -13 -9 0 -15 -9 -15 -21 0 -17 3 -19 13 -10 8 6 17 8 20
4 4 -3 7 -1 7 6 0 7 4 10 9 7 13 -8 71 14 93 36 10 10 28 18 41 18 12 0 29 5
37 11 12 8 11 9 -5 5 -58 -14 -90 -17 -75 -7 9 7 10 11 3 11 -6 0 -15 -4 -18
-10z"/>
<path d="M250 90 c-24 -6 -23 -7 19 -28 24 -12 48 -19 52 -16 11 6 12 35 2 32
-5 -1 -17 3 -28 8 -11 6 -31 8 -45 4z"/>
</g>
</svg>
