<?xml version="1.0" standalone="no"?>
<!DOCTYPE svg PUBLIC "-//W3C//DTD SVG 20010904//EN"
 "http://www.w3.org/TR/2001/REC-SVG-20010904/DTD/svg10.dtd">
<svg version="1.0" xmlns="http://www.w3.org/2000/svg"
 width="64.000000pt" height="64.000000pt" viewBox="0 0 64.000000 64.000000"
 preserveAspectRatio="xMidYMid meet">

<g transform="translate(0.000000,58.000000) scale(0.130000,-0.130000)"
fill="#000000" stroke="none">
<path d="M222 358 c-7 -7 -12 -18 -12 -25 0 -7 -11 -15 -25 -19 -30 -7 -29 -4
-10 -40 20 -38 19 -56 -2 -52 -11 2 -20 16 -25 38 -4 26 -6 19 -5 -27 1 -34 5
-59 9 -57 5 3 8 -3 9 -13 0 -10 3 -13 5 -6 3 7 0 22 -6 35 -11 22 -10 22 4 4
9 -11 16 -23 16 -28 0 -4 7 -8 16 -8 13 0 14 -3 4 -15 -6 -8 -9 -19 -5 -26 5
-8 1 -9 -14 -4 -22 7 -26 -4 -13 -37 5 -13 11 -15 22 -8 8 5 27 10 43 10 20 0
27 5 27 19 0 12 8 21 23 24 12 2 0 5 -28 6 -37 2 -45 5 -30 10 11 5 23 7 26 5
4 -2 12 2 18 10 9 11 8 15 -5 20 -10 4 -22 -1 -31 -11 -13 -17 -14 -16 -10 10
3 18 0 27 -9 27 -8 0 -14 11 -14 25 0 23 2 25 21 14 20 -10 21 -9 16 10 -3 14
0 21 9 21 24 0 29 -4 26 -25 -2 -19 -2 -19 12 -2 10 14 15 15 19 5 3 -7 6 -4
6 8 1 11 6 25 11 30 7 7 4 16 -10 29 -11 10 -20 24 -20 32 0 16 -16 17 -26 1
-5 -8 -11 -6 -19 5 -9 12 -14 14 -23 5z"/>
<path d="M161 263 c-1 -12 4 -25 9 -28 12 -7 12 2 0 30 -8 19 -9 19 -9 -2z"/>
<path d="M218 63 c13 -3 26 -11 29 -19 3 -8 14 -14 24 -14 16 0 17 3 8 18 -7
11 -24 17 -47 18 -21 1 -27 -1 -14 -3z"/>
</g>
</svg>
