<?xml version="1.0" standalone="no"?>
<!DOCTYPE svg PUBLIC "-//W3C//DTD SVG 20010904//EN"
 "http://www.w3.org/TR/2001/REC-SVG-20010904/DTD/svg10.dtd">
<svg version="1.0" xmlns="http://www.w3.org/2000/svg"
 width="64.000000pt" height="64.000000pt" viewBox="0 0 64.000000 64.000000"
 preserveAspectRatio="xMidYMid meet">

<g transform="translate(0.000000,58.000000) scale(0.130000,-0.130000)"
fill="#000000" stroke="none">
<path d="M201 357 c-6 -14 -17 -29 -26 -34 -14 -8 -14 -12 0 -39 20 -38 19
-56 -2 -52 -12 2 -20 16 -24 38 l-6 35 -2 -40 c-1 -22 -5 -46 -10 -54 -5 -8
-7 -20 -4 -28 4 -11 9 -9 20 7 8 11 19 20 24 20 15 0 28 -43 17 -57 -5 -7 -7
-16 -4 -22 3 -5 1 -11 -6 -13 -8 -3 -8 -12 2 -35 11 -24 17 -29 27 -21 10 8
13 5 13 -11 0 -15 6 -21 21 -21 l20 0 -21 27 c-19 24 -19 28 -5 36 9 5 23 6
31 3 8 -3 14 1 14 9 0 8 -21 20 -47 29 -27 9 -36 14 -22 11 14 -2 36 3 48 12
21 14 22 17 6 25 -12 7 -20 5 -30 -9 -14 -17 -14 -17 -15 4 0 12 -4 25 -10 28
-5 3 -10 17 -10 31 0 22 2 23 21 13 19 -10 20 -8 14 10 -5 15 -2 21 9 21 26 0
31 -4 29 -25 -3 -19 -2 -19 11 -2 11 14 15 15 19 5 3 -7 6 1 6 19 1 17 7 34
14 36 7 3 5 6 -5 6 -10 1 -18 9 -18 18 0 9 -3 13 -7 10 -3 -4 -12 1 -19 11
-11 14 -15 14 -22 4 -7 -11 -12 -10 -26 3 -15 15 -17 15 -25 -8z m-60 -160
c-10 -9 -11 -8 -5 6 3 10 9 15 12 12 3 -3 0 -11 -7 -18z"/>
<path d="M161 273 c-1 -12 4 -25 9 -28 12 -7 12 2 0 30 -8 19 -9 19 -9 -2z"/>
</g>
</svg>
