<?xml version="1.0" standalone="no"?>
<!DOCTYPE svg PUBLIC "-//W3C//DTD SVG 20010904//EN"
 "http://www.w3.org/TR/2001/REC-SVG-20010904/DTD/svg10.dtd">
<svg version="1.0" xmlns="http://www.w3.org/2000/svg"
 width="64.000000pt" height="64.000000pt" viewBox="0 0 64.000000 64.000000"
 preserveAspectRatio="xMidYMid meet">

<g transform="translate(0.000000,58.000000) scale(0.130000,-0.130000)"
fill="#000000" stroke="none">
<path d="M206 357 c-9 -13 -27 -29 -40 -35 -21 -9 -25 -19 -28 -69 -3 -37 1
-65 9 -78 12 -18 13 -18 13 10 0 23 -3 27 -10 15 -5 -8 -10 -10 -10 -4 0 16
10 23 26 17 16 -6 19 -49 3 -58 -6 -4 -8 -13 -5 -21 3 -7 -1 -20 -9 -28 -18
-18 -20 -50 -3 -40 7 5 28 7 46 5 24 -2 32 1 27 9 -4 7 1 14 14 17 33 9 25 21
-26 37 -28 9 -35 13 -16 10 17 -3 34 0 38 6 4 6 15 8 24 5 28 -9 45 18 21 33
-16 10 -23 8 -41 -11 l-21 -22 4 31 c3 24 1 31 -9 27 -9 -3 -13 4 -13 21 0 24
2 26 21 15 19 -10 20 -8 14 10 -5 15 -2 21 9 21 26 0 31 -4 29 -25 -3 -19 -2
-19 11 -2 11 14 15 15 19 5 3 -7 6 -1 6 14 1 15 6 30 12 34 8 5 6 10 -5 16 -9
5 -13 14 -10 20 5 7 1 9 -9 5 -11 -4 -17 -1 -17 8 0 18 -16 20 -26 3 -5 -8
-11 -6 -20 6 -12 16 -14 16 -28 -7z m-20 -100 c6 -25 4 -28 -12 -25 -14 2 -20
13 -22 43 -3 36 -2 38 12 25 8 -8 18 -28 22 -43z"/>
<path d="M161 273 c-1 -12 4 -25 9 -28 12 -7 12 2 0 30 -8 19 -9 19 -9 -2z"/>
<path d="M292 62 c4 -21 32 -22 36 -2 2 10 -5 16 -18 17 -15 1 -20 -3 -18 -15z"/>
</g>
</svg>
