<?xml version="1.0" standalone="no"?>
<!DOCTYPE svg PUBLIC "-//W3C//DTD SVG 20010904//EN"
 "http://www.w3.org/TR/2001/REC-SVG-20010904/DTD/svg10.dtd">
<svg version="1.0" xmlns="http://www.w3.org/2000/svg"
 width="64.000000pt" height="64.000000pt" viewBox="0 0 64.000000 64.000000"
 preserveAspectRatio="xMidYMid meet">

<g transform="translate(0.000000,58.000000) scale(0.130000,-0.130000)"
fill="#000000" stroke="none">
<path d="M196 383 c-3 -4 -6 -13 -6 -21 0 -8 -7 -20 -16 -26 -14 -10 -14 -14
0 -41 20 -38 20 -55 1 -55 -7 0 -19 -8 -24 -17 -6 -10 -11 -13 -11 -7 0 5 4
14 8 20 4 5 5 27 1 49 l-6 40 -2 -43 c0 -24 -6 -53 -12 -64 -8 -15 -8 -19 0
-14 6 4 11 0 12 -11 0 -14 2 -14 9 5 5 12 13 22 19 22 12 0 21 -49 9 -56 -5
-3 -8 -11 -7 -17 4 -37 -3 -59 -21 -64 -12 -3 -20 -14 -20 -26 0 -16 3 -18 12
-9 7 7 22 12 35 12 13 0 28 9 35 20 7 11 20 20 28 20 9 0 22 6 29 12 10 11 2
16 -41 30 -29 9 -42 16 -28 15 21 -2 25 2 22 23 -2 14 -8 29 -13 34 -5 6 -9
21 -9 33 0 21 2 22 21 12 19 -10 20 -8 14 10 -5 15 -2 21 9 21 26 0 31 -4 29
-25 -3 -19 -2 -19 11 -2 11 14 15 15 19 5 3 -7 6 -1 6 14 1 15 5 29 11 33 5 3
0 15 -11 26 -11 11 -23 18 -26 15 -3 -3 -12 2 -19 12 -11 14 -15 14 -22 4 -7
-11 -12 -11 -24 2 -9 8 -18 12 -22 9z"/>
<path d="M161 283 c-1 -12 4 -25 9 -28 12 -7 12 2 0 30 -8 19 -9 19 -9 -2z"/>
<path d="M237 186 c-8 -19 22 -29 40 -15 11 10 11 14 1 20 -20 13 -35 11 -41
-5z"/>
<path d="M230 156 c0 -2 7 -7 16 -10 8 -3 12 -2 9 4 -6 10 -25 14 -25 6z"/>
<path d="M263 83 c-7 -3 -9 -11 -6 -19 5 -15 29 -19 36 -6 7 10 -16 29 -30 25z"/>
</g>
</svg>
