<?xml version="1.0" encoding="UTF-8" standalone="no"?>
<svg
   xmlns:dc="http://purl.org/dc/elements/1.1/"
   xmlns:cc="http://creativecommons.org/ns#"
   xmlns:rdf="http://www.w3.org/1999/02/22-rdf-syntax-ns#"
   xmlns:svg="http://www.w3.org/2000/svg"
   xmlns="http://www.w3.org/2000/svg"
   xmlns:sodipodi="http://sodipodi.sourceforge.net/DTD/sodipodi-0.dtd"
   xmlns:inkscape="http://www.inkscape.org/namespaces/inkscape"
   version="1.0"
   width="64.000000pt"
   height="64.000000pt"
   viewBox="0 0 64.000000 64.000000"
   preserveAspectRatio="xMidYMid meet"
   id="svg3825"
   sodipodi:docname="runloop01.svg"
   inkscape:version="0.92.5 (2060ec1f9f, 2020-04-08)">
  <metadata
     id="metadata3831">
    <rdf:RDF>
      <cc:Work
         rdf:about="">
        <dc:format>image/svg+xml</dc:format>
        <dc:type
           rdf:resource="http://purl.org/dc/dcmitype/StillImage" />
      </cc:Work>
    </rdf:RDF>
  </metadata>
  <defs
     id="defs3829" />
  <sodipodi:namedview
     pagecolor="#ffffff"
     bordercolor="#666666"
     borderopacity="1"
     objecttolerance="10"
     gridtolerance="10"
     guidetolerance="10"
     inkscape:pageopacity="0"
     inkscape:pageshadow="2"
     inkscape:window-width="1304"
     inkscape:window-height="745"
     id="namedview3827"
     showgrid="false"
     inkscape:zoom="22.125"
     inkscape:cx="47.285076"
     inkscape:cy="59.901502"
     inkscape:window-x="54"
     inkscape:window-y="-8"
     inkscape:window-maximized="1"
     inkscape:current-layer="g3823" />
  <g
     transform="translate(0.000000,58.000000) scale(0.130000,-0.130000)"
     fill="#000000"
     stroke="none"
     id="g3823">
    <path
       d="m 200.95437,377.00261 c -3,-4 -5.21773,-10.6532 -5.21773,-18.6532 C 195.73664,350.34941 183,342 174,336 c -14,-10 -14,-14 0,-41 20,-38 20,-55 1,-55 -7,0 -19,-8 -24,-17 -6,-10 -11,-13 -11,-7 0,5 4,14 8,20 4,5 5,27 1,49 l -6,40 -2,-43 c 0,-24 -6,-53 -12,-64 -8,-15 -8,-19 0,-14 6,4 11,0 12,-11 0,-14 2,-14 9,5 5,12 13,22 19,22 12,0 21,-49 9,-56 -5,-3 -8,-11 -7,-17 4,-37 -3,-59 -21,-64 -12,-3 -20,-14 -20,-26 0,-16 3,-18 12,-9 7,7 22,12 35,12 13,0 28,9 35,20 7,11 20,20 28,20 9,0 22,6 29,12 10,11 2,16 -41,30 -29,9 -42,16 -28,15 21,-2 25,2 22,23 -2,14 -8,29 -13,34 -5,6 -9,21 -9,33 0,21 2,22 21,12 19,-10 20,-8 14,10 -5,15 -2.26076,18.13168 8.73924,18.13168 26,0 28.6532,-1.39244 26.6532,-22.39244 -3,-19 -2.78227,-19.52151 10.21773,-2.52151 11,14 15.26076,14.73925 19.26076,4.73925 3,-7 10.43285,0.043 10.43285,15.04302 1,15 3.69622,29 9.69622,33 5,3 -2.86832,13.17471 -13.86832,24.17471 -11,11 -19.34941,15.13168 -22.34941,12.13168 -3,-3 -7.30639,6.43285 -14.30639,16.43285 -11,14 -13.95698,9.56715 -20.95698,-0.43285 -7,-11 -10.69621,-8.39244 -22.69621,4.60756 -9,8 -20.86832,8.08866 -24.86832,5.08866 z"
       id="path3813"
       inkscape:connector-curvature="0"
       sodipodi:nodetypes="csccscsccccccccscccssssscccscsssscccccsscccc" />
    <path
       d="M161 283 c-1 -12 4 -25 9 -28 12 -7 12 2 0 30 -8 19 -9 19 -9 -2z"
       id="path3815" />
    <path
       d="m 236.73924,180.52412 c -8,-19 22,-29 40,-15 11,10 11,14 1,20 -20,13 -35,11 -41,-5 z"
       id="path3817"
       inkscape:connector-curvature="0" />
    <path
       d="m 227.65319,154.43546 c 0,-2 7,-7 16,-10 8,-3 12,-2 9,4 -6,10 -25,14 -25,6 z"
       id="path3819"
       inkscape:connector-curvature="0" />
    <path
       d="m 259.61017,83 c -7,-3 -9,-11 -6,-19 5,-15 29,-19 36,-6 7,10 -16,29 -30,25 z"
       id="path3821"
       inkscape:connector-curvature="0" />
  </g>
</svg>
