<?xml version="1.0" standalone="no"?>
<!DOCTYPE svg PUBLIC "-//W3C//DTD SVG 20010904//EN"
 "http://www.w3.org/TR/2001/REC-SVG-20010904/DTD/svg10.dtd">
<svg version="1.0" xmlns="http://www.w3.org/2000/svg"
 width="64.000000pt" height="64.000000pt" viewBox="0 0 64.000000 64.000000"
 preserveAspectRatio="xMidYMid meet">

<g transform="translate(0.000000,58.000000) scale(0.130000,-0.130000)"
fill="#000000" stroke="none">
<path d="M191 357 c-6 -14 -17 -29 -26 -34 -14 -8 -14 -12 0 -39 20 -38 19
-56 -2 -52 -12 2 -20 16 -24 38 l-6 35 -2 -40 c-1 -22 -5 -46 -10 -54 -5 -8
-7 -20 -4 -27 4 -10 10 -8 23 9 14 17 21 19 31 10 16 -16 5 -41 -22 -45 -28
-4 -36 -25 -12 -30 10 -2 18 -12 18 -22 0 -10 7 -23 16 -29 23 -14 93 18 85
40 -3 8 -6 16 -6 18 0 2 -8 1 -19 -2 -10 -3 -22 0 -25 5 -3 6 2 8 12 5 10 -2
29 4 42 15 l24 19 -23 8 c-16 5 -26 2 -36 -12 -14 -17 -14 -17 -15 4 0 12 -4
25 -10 28 -5 3 -10 17 -10 31 0 22 2 23 21 13 19 -10 20 -8 14 10 -5 15 -2 21
9 21 26 0 31 -4 29 -25 -3 -19 -2 -19 11 -2 11 14 15 15 19 5 3 -7 6 1 6 19 1
17 7 34 14 36 7 3 5 6 -5 6 -10 1 -18 9 -18 18 0 9 -3 13 -7 10 -3 -4 -12 1
-19 11 -11 14 -15 14 -22 4 -7 -11 -12 -10 -26 3 -15 15 -17 15 -25 -8z m-60
-160 c-10 -9 -11 -8 -5 6 3 10 9 15 12 12 3 -3 0 -11 -7 -18z m53 -62 c29 -22
15 -25 -19 -4 -16 11 -23 19 -15 19 8 -1 24 -7 34 -15z"/>
<path d="M151 273 c-1 -12 4 -25 9 -28 12 -7 12 2 0 30 -8 19 -9 19 -9 -2z"/>
<path d="M238 82 c-14 -3 -15 -7 -6 -28 6 -13 20 -24 31 -24 14 0 17 3 9 13
-5 6 -11 19 -13 27 -2 9 -12 14 -21 12z"/>
<path d="M140 45 c-10 -12 -9 -15 8 -15 11 0 22 7 26 15 7 20 -18 20 -34 0z"/>
</g>
</svg>
