<?xml version="1.0" standalone="no"?>
<!DOCTYPE svg PUBLIC "-//W3C//DTD SVG 20010904//EN"
 "http://www.w3.org/TR/2001/REC-SVG-20010904/DTD/svg10.dtd">
<svg version="1.0" xmlns="http://www.w3.org/2000/svg"
 width="64.000000pt" height="64.000000pt" viewBox="0 0 64.000000 64.000000"
 preserveAspectRatio="xMidYMid meet">

<g transform="translate(0.000000,58.000000) scale(0.130000,-0.130000)"
fill="#000000" stroke="none">
<path d="M196 357 c-9 -13 -27 -29 -40 -35 -21 -9 -25 -19 -28 -69 -2 -32 0
-63 4 -70 5 -6 5 -14 -2 -18 -17 -11 -11 -23 16 -29 21 -6 24 -9 14 -21 -10
-12 -10 -18 0 -30 16 -19 29 -19 68 1 33 16 37 22 24 39 -8 11 -44 14 -52 4
-3 -3 -18 3 -35 14 -16 10 -21 16 -10 12 49 -18 81 -15 104 9 19 20 20 24 7
29 -9 4 -25 -3 -37 -16 l-21 -22 4 31 c3 24 1 31 -9 27 -9 -3 -13 4 -13 21 0
24 2 26 21 15 19 -10 20 -8 14 10 -5 15 -2 21 9 21 26 0 31 -4 29 -25 -3 -19
-2 -19 11 -2 11 14 15 15 19 5 3 -7 6 -1 6 14 1 15 6 30 12 34 8 5 6 10 -5 16
-9 5 -13 14 -10 20 5 7 1 9 -9 5 -11 -4 -17 -1 -17 8 0 18 -16 20 -26 3 -5 -8
-11 -6 -20 6 -12 16 -14 16 -28 -7z m-20 -100 c6 -25 4 -28 -12 -25 -14 2 -20
13 -22 43 -3 36 -2 38 12 25 8 -8 18 -28 22 -43z m1 -70 c-7 -22 -27 -19 -27
5 0 18 -2 20 -10 8 -5 -8 -10 -10 -10 -4 0 19 12 24 32 13 11 -6 18 -15 15
-22z"/>
<path d="M151 273 c-1 -12 4 -25 9 -28 12 -7 12 2 0 30 -8 19 -9 19 -9 -2z"/>
<path d="M238 82 c-14 -3 -15 -7 -6 -28 6 -13 20 -24 31 -24 14 0 17 3 9 13
-5 6 -11 19 -13 27 -2 9 -12 14 -21 12z"/>
<path d="M140 45 c-10 -12 -9 -15 8 -15 11 0 22 7 26 15 7 20 -18 20 -34 0z"/>
</g>
</svg>
