<?xml version="1.0" standalone="no"?>
<!DOCTYPE svg PUBLIC "-//W3C//DTD SVG 20010904//EN"
 "http://www.w3.org/TR/2001/REC-SVG-20010904/DTD/svg10.dtd">
<svg version="1.0" xmlns="http://www.w3.org/2000/svg"
 width="64.000000pt" height="64.000000pt" viewBox="0 0 64.000000 64.000000"
 preserveAspectRatio="xMidYMid meet">

<g transform="translate(0.000000,58.000000) scale(0.130000,-0.130000)"
fill="#000000" stroke="none">
<path d="M212 368 c-7 -7 -12 -18 -12 -25 0 -7 -11 -15 -25 -19 -30 -7 -29 -4
-10 -40 20 -38 19 -56 -2 -52 -11 2 -20 16 -25 38 -4 26 -6 19 -5 -27 1 -34 5
-59 9 -57 5 3 8 1 8 -4 0 -6 -7 -12 -15 -16 -23 -8 -18 -23 11 -30 21 -6 24
-9 14 -21 -10 -12 -10 -18 0 -30 16 -19 29 -19 68 1 33 16 37 22 24 39 -8 11
-44 14 -52 4 -3 -3 -18 3 -35 14 -16 10 -21 16 -10 12 49 -18 81 -15 104 9 19
20 20 24 7 29 -9 4 -25 -3 -37 -16 l-22 -22 5 28 c4 18 1 27 -8 27 -8 0 -14
11 -14 25 0 23 2 25 21 14 19 -10 20 -8 14 10 -5 15 -2 21 9 21 26 0 31 -4 29
-25 -3 -19 -2 -19 11 -2 11 14 15 15 19 5 3 -7 6 -4 6 8 1 11 6 25 11 30 7 7
4 16 -10 29 -11 10 -20 24 -20 32 0 16 -16 17 -26 1 -5 -8 -11 -6 -19 5 -9 12
-14 14 -23 5z m-39 -171 c4 3 7 1 7 -5 0 -23 -18 -20 -29 6 -10 23 -10 25 2
10 8 -10 17 -15 20 -11z"/>
<path d="M151 273 c-1 -12 4 -25 9 -28 12 -7 12 2 0 30 -8 19 -9 19 -9 -2z"/>
<path d="M238 82 c-14 -3 -15 -7 -6 -28 6 -13 20 -24 31 -24 14 0 17 3 9 13
-5 6 -11 19 -13 27 -2 9 -12 14 -21 12z"/>
<path d="M140 45 c-10 -12 -9 -15 8 -15 11 0 22 7 26 15 7 20 -18 20 -34 0z"/>
</g>
</svg>
