<?xml version="1.0" standalone="no"?>
<!DOCTYPE svg PUBLIC "-//W3C//DTD SVG 20010904//EN"
 "http://www.w3.org/TR/2001/REC-SVG-20010904/DTD/svg10.dtd">
<svg version="1.0" xmlns="http://www.w3.org/2000/svg"
 width="64.000000pt" height="64.000000pt" viewBox="0 0 64.000000 64.000000"
 preserveAspectRatio="xMidYMid meet">

<g transform="translate(0.000000,58.000000) scale(0.130000,-0.130000)"
fill="#000000" stroke="none">
<path d="M188 354 c-36 -32 -37 -34 -23 -61 20 -37 19 -55 -2 -51 -12 2 -20
16 -24 38 l-6 35 -2 -40 c-1 -22 -5 -46 -10 -54 -5 -8 -7 -20 -4 -27 4 -10 10
-8 23 9 14 17 21 19 31 10 16 -16 5 -41 -22 -45 -28 -4 -36 -25 -12 -30 10 -2
18 -12 18 -23 0 -14 11 -23 35 -31 18 -6 38 -21 44 -33 5 -11 18 -21 30 -21
15 0 17 3 8 12 -7 7 -12 20 -12 29 0 10 -10 19 -22 22 -23 4 -23 4 1 6 17 1
21 5 17 17 -3 9 -6 19 -6 24 0 4 -8 6 -19 3 -10 -3 -22 0 -25 5 -3 6 2 8 12 5
10 -2 29 4 42 15 l24 19 -23 8 c-16 5 -26 2 -36 -12 -14 -17 -14 -17 -15 4 0
12 -4 25 -10 28 -5 3 -10 17 -10 31 0 22 2 24 21 13 20 -10 21 -9 16 10 -3 14
0 21 9 21 24 0 29 -4 26 -25 -2 -19 -2 -19 12 -2 10 14 15 15 19 5 3 -7 6 0 6
15 1 16 8 30 18 34 14 5 13 8 -6 15 -14 5 -19 12 -15 20 5 8 2 9 -9 5 -11 -4
-14 -2 -10 9 6 17 -13 19 -23 2 -5 -8 -10 -7 -18 4 -10 14 -17 11 -48 -18z
m-4 -209 c29 -22 15 -25 -19 -4 -16 11 -23 19 -15 19 8 -1 24 -7 34 -15z"/>
<path d="M151 283 c-1 -12 4 -25 9 -28 12 -7 12 2 0 30 -8 19 -9 19 -9 -2z"/>
<path d="M140 45 c-10 -12 -9 -15 8 -15 11 0 22 7 26 15 7 20 -18 20 -34 0z"/>
</g>
</svg>
