<?xml version="1.0" standalone="no"?>
<!DOCTYPE svg PUBLIC "-//W3C//DTD SVG 20010904//EN"
 "http://www.w3.org/TR/2001/REC-SVG-20010904/DTD/svg10.dtd">
<svg version="1.0" xmlns="http://www.w3.org/2000/svg"
 width="64.000000pt" height="64.000000pt" viewBox="0 0 64.000000 64.000000"
 preserveAspectRatio="xMidYMid meet">

<g transform="translate(0.000000,58.000000) scale(0.130000,-0.130000)"
fill="#000000" stroke="none">
<path d="M186 373 c-3 -4 -6 -13 -6 -21 0 -8 -7 -20 -16 -26 -14 -10 -14 -14
0 -41 20 -38 20 -55 1 -55 -7 0 -19 -8 -24 -17 -6 -10 -11 -13 -11 -7 0 5 4
14 8 20 4 5 5 27 1 49 l-6 40 -2 -43 c0 -24 -6 -53 -12 -64 -8 -15 -8 -19 0
-14 6 4 11 0 12 -11 0 -14 2 -13 10 5 10 27 34 25 34 -3 0 -12 -9 -21 -24 -25
-30 -7 -39 -27 -14 -32 10 -2 18 -12 18 -22 0 -10 7 -23 16 -29 23 -14 93 18
85 40 -3 8 -6 16 -6 18 0 2 -8 1 -19 -2 -10 -3 -22 0 -25 5 -3 6 2 8 12 5 10
-2 29 4 42 15 l24 19 -23 8 c-16 5 -26 2 -36 -12 -14 -17 -14 -17 -15 4 0 12
-4 25 -10 28 -5 3 -10 17 -10 31 0 22 2 23 21 13 19 -10 20 -8 14 10 -5 15 -2
21 9 21 26 0 31 -4 29 -25 -3 -19 -2 -19 11 -2 11 14 15 15 19 5 3 -7 6 -1 6
14 1 15 5 29 11 33 5 3 0 15 -11 26 -11 11 -23 18 -26 15 -3 -3 -12 2 -19 12
-11 14 -15 14 -22 4 -7 -11 -12 -11 -24 2 -9 8 -18 12 -22 9z m-2 -238 c29
-22 15 -25 -19 -4 -16 11 -23 19 -15 19 8 -1 24 -7 34 -15z"/>
<path d="M151 273 c-1 -12 4 -25 9 -28 12 -7 12 2 0 30 -8 19 -9 19 -9 -2z"/>
<path d="M238 82 c-14 -3 -15 -7 -6 -28 6 -13 20 -24 31 -24 14 0 17 3 9 13
-5 6 -11 19 -13 27 -2 9 -12 14 -21 12z"/>
<path d="M140 45 c-10 -12 -9 -15 8 -15 11 0 22 7 26 15 7 20 -18 20 -34 0z"/>
</g>
</svg>
