<?xml version="1.0" standalone="no"?>
<!DOCTYPE svg PUBLIC "-//W3C//DTD SVG 20010904//EN"
 "http://www.w3.org/TR/2001/REC-SVG-20010904/DTD/svg10.dtd">
<svg version="1.0" xmlns="http://www.w3.org/2000/svg"
 width="32.000000pt" height="32.000000pt" viewBox="0 0 32.000000 32.000000"
 preserveAspectRatio="xMidYMid meet">

<g transform="translate(0.000000,32.000000) scale(0.100000,-0.100000)"
fill="#000000" stroke="none">
<path d="M0 158 c0 -580 5 -144 5 -120 4 42 5 43 36 40 29 -3 32 -6 35 -41 3
-32 7 -37 28 -37 15 0 24 6 24 16 0 11 8 14 33 12 19 -2 31 -8 30 -16 -2 -6 4
-12 12 -12 8 0 14 6 12 13 -1 6 5 12 13 12 8 0 14 -6 13 -12 -2 -9 10 -13 37
-13 40 0 40 0 40 39 0 31 -4 40 -21 44 -23 6 -17 27 7 27 8 0 14 3 14 8 0 4
-12 7 -28 7 -15 0 -27 5 -27 10 0 6 12 10 28 10 15 0 27 3 27 7 0 5 -7 8 -15
8 -8 0 -15 5 -15 10 0 6 7 10 15 10 20 0 20 56 0 64 -22 8 -20 63 3 69 9 3
-56 5 -145 6 l-163 1 2 -162z m86 115 c-3 -36 -5 -38 -38 -38 -33 0 -35 2 -38
38 l-3 37 41 0 41 0 -3 -37z m190 5 l-3 -33 -85 0 -85 0 -3 33 -3 32 91 0 91
0 -3 -32z m-203 -123 l0 -60 -32 -3 -33 -3 0 66 0 66 33 -3 32 -3 0 -60z m115
15 c0 -5 -12 -10 -26 -10 -14 0 -23 4 -19 10 3 6 15 10 26 10 10 0 19 -4 19
-10z m70 0 c0 -5 -9 -10 -20 -10 -11 0 -20 5 -20 10 0 6 9 10 20 10 11 0 20
-4 20 -10z m-29 -35 c0 -5 -7 -12 -16 -13 -23 -5 -47 6 -40 19 8 13 56 8 56
-6z m-40 -40 c0 -5 -7 -12 -16 -13 -23 -5 -47 6 -40 19 8 13 56 8 56 -6z m61
3 c-9 -9 -15 -9 -24 0 -9 9 -7 12 12 12 19 0 21 -3 12 -12z m-27 -38 c8 -13
-20 -24 -41 -16 -20 8 -9 26 16 26 10 0 22 -5 25 -10z"/>
</g>
</svg>
