<?xml version="1.0" standalone="no"?>
<!DOCTYPE svg PUBLIC "-//W3C//DTD SVG 20010904//EN"
 "http://www.w3.org/TR/2001/REC-SVG-20010904/DTD/svg10.dtd">
<svg version="1.0" xmlns="http://www.w3.org/2000/svg"
 width="32.000000pt" height="32.000000pt" viewBox="0 0 32.000000 32.000000"
 preserveAspectRatio="xMidYMid meet">

<g transform="translate(0.000000,32.000000) scale(0.100000,-0.100000)"
fill="#000000" stroke="none">
<path d="M63 310 l68 -4 -3 -32 c-3 -32 -3 -32 -65 -35 -62 -3 -63 -3 -63 -32
0 -20 5 -30 15 -30 8 0 15 -4 15 -10 0 -5 -7 -10 -15 -10 -24 0 -19 -47 6 -53
23 -6 17 -27 -7 -27 -10 0 -14 -12 -14 -40 l0 -40 160 0 160 0 0 39 c0 31 -4
40 -21 44 -23 6 -17 27 7 27 8 0 14 3 14 8 0 4 -12 7 -28 7 -15 0 -27 5 -27
10 0 6 12 10 28 10 15 0 27 3 27 7 0 5 -7 8 -15 8 -8 0 -15 5 -15 10 0 6 7 10
15 10 10 0 15 10 15 29 0 23 -5 30 -22 33 -18 2 -24 11 -26 35 -3 28 0 32 25
36 15 2 -46 4 -137 4 -91 -1 -134 -2 -97 -4z m195 -35 c-3 -33 -3 -33 -58 -33
-55 0 -55 0 -58 33 l-3 32 61 0 61 0 -3 -32z m-158 -108 c0 -5 -9 -10 -20 -10
-11 0 -20 5 -20 10 0 6 9 10 20 10 11 0 20 -4 20 -10z m90 0 c0 -5 -13 -10
-30 -10 -16 0 -30 5 -30 10 0 6 14 10 30 10 17 0 30 -4 30 -10z m70 0 c0 -5
-9 -10 -20 -10 -11 0 -20 5 -20 10 0 6 9 10 20 10 11 0 20 -4 20 -10z m-189
-35 c0 -5 -7 -12 -16 -13 -23 -5 -47 6 -40 19 8 13 56 8 56 -6z m80 0 c0 -5
-7 -12 -16 -13 -23 -5 -47 6 -40 19 8 13 56 8 56 -6z m80 0 c0 -5 -7 -12 -16
-13 -23 -5 -47 6 -40 19 8 13 56 8 56 -6z m-139 -37 c-9 -9 -15 -9 -24 0 -9 9
-7 12 12 12 19 0 21 -3 12 -12z m103 -3 c0 -12 -40 -19 -61 -11 -9 3 -12 11
-9 16 8 14 70 9 70 -5z m57 3 c-9 -9 -15 -9 -24 0 -9 9 -7 12 12 12 19 0 21
-3 12 -12z"/>
</g>
</svg>
