<?xml version="1.0" standalone="no"?>
<!DOCTYPE svg PUBLIC "-//W3C//DTD SVG 20010904//EN"
 "http://www.w3.org/TR/2001/REC-SVG-20010904/DTD/svg10.dtd">
<svg version="1.0" xmlns="http://www.w3.org/2000/svg"
 width="32.000000pt" height="32.000000pt" viewBox="0 0 32.000000 32.000000"
 preserveAspectRatio="xMidYMid meet">

<g transform="translate(0.000000,32.000000) scale(0.100000,-0.100000)"
fill="#000000" stroke="none">
<path d="M38 313 c42 -4 43 -5 40 -36 -3 -29 -6 -32 -40 -35 -35 -3 -38 -6
-38 -33 0 -19 5 -29 15 -29 8 0 15 -4 15 -10 0 -5 -7 -10 -15 -10 -24 0 -19
-47 6 -53 23 -6 17 -27 -7 -27 -10 0 -14 -12 -14 -40 l0 -40 45 0 c25 0 44 3
42 8 -1 4 3 7 8 7 5 0 9 -3 8 -7 -2 -5 4 -8 12 -8 8 0 14 6 12 13 -1 7 9 12
28 12 19 0 29 -5 28 -13 -2 -7 8 -12 26 -12 27 0 30 3 33 38 3 34 6 37 35 40
31 3 32 2 36 -40 2 -24 4 30 5 120 l2 162 -162 -2 c-90 -1 -144 -3 -120 -5z
m180 -35 l-3 -33 -60 0 -60 0 -3 33 -3 32 66 0 66 0 -3 -32z m90 -5 c-3 -36
-5 -38 -38 -38 -33 0 -35 2 -38 38 l-3 37 41 0 41 0 -3 -37z m2 -119 l0 -65
-32 3 c-32 3 -33 5 -36 52 -4 64 2 76 38 76 l30 0 0 -66z m-210 16 c0 -5 -9
-10 -20 -10 -11 0 -20 5 -20 10 0 6 9 10 20 10 11 0 20 -4 20 -10z m75 0 c4
-6 -5 -10 -19 -10 -14 0 -26 5 -26 10 0 6 9 10 19 10 11 0 23 -4 26 -10z
m-104 -35 c0 -5 -7 -12 -16 -13 -23 -5 -47 6 -40 19 8 13 56 8 56 -6z m80 0
c0 -5 -7 -12 -16 -13 -23 -5 -47 6 -40 19 8 13 56 8 56 -6z m-59 -37 c-9 -9
-15 -9 -24 0 -9 9 -7 12 12 12 19 0 21 -3 12 -12z m89 -3 c0 -5 -7 -12 -16
-13 -23 -5 -47 6 -40 19 8 13 56 8 56 -6z m-26 -34 c3 -5 1 -13 -5 -16 -15 -9
-43 3 -35 15 8 13 32 13 40 1z"/>
</g>
</svg>
