<?xml version="1.0" standalone="no"?>
<!DOCTYPE svg PUBLIC "-//W3C//DTD SVG 20010904//EN"
 "http://www.w3.org/TR/2001/REC-SVG-20010904/DTD/svg10.dtd">
<svg version="1.0" xmlns="http://www.w3.org/2000/svg"
 width="32.000000pt" height="32.000000pt" viewBox="0 0 32.000000 32.000000"
 preserveAspectRatio="xMidYMid meet">

<g transform="translate(0.000000,32.000000) scale(0.100000,-0.100000)"
fill="#000000" stroke="none">
<path d="M3 160 c1 -91 2 -134 4 -97 l4 68 32 -3 c32 -3 32 -3 35 -65 3 -62 3
-63 32 -63 19 0 29 5 27 13 -1 7 9 12 28 12 19 0 29 -5 28 -13 -2 -6 4 -12 12
-12 8 0 14 6 12 13 -1 6 5 12 13 12 8 0 14 -6 13 -12 -2 -9 10 -13 37 -13 l40
0 0 160 0 160 -119 0 c-116 0 -120 -1 -123 -22 -2 -18 -11 -24 -35 -26 -28 -3
-32 0 -36 25 -2 15 -4 -46 -4 -137z m228 135 c0 -5 -7 -12 -16 -13 -23 -5 -47
6 -40 19 8 13 56 8 56 -6z m-40 -40 c0 -5 -7 -12 -16 -13 -23 -5 -47 6 -40 19
8 13 56 8 56 -6z m54 6 c7 -12 -12 -24 -25 -16 -11 7 -4 25 10 25 5 0 11 -4
15 -9z m-170 -61 c0 -55 0 -55 -32 -58 l-33 -3 0 61 0 61 33 -3 c32 -3 32 -3
32 -58z m156 15 c0 -5 -7 -12 -16 -13 -23 -5 -47 6 -40 19 8 13 56 8 56 -6z
m-40 -40 c0 -5 -7 -12 -16 -13 -23 -5 -47 6 -40 19 8 13 56 8 56 -6z m54 6 c7
-12 -12 -24 -25 -16 -11 7 -4 25 10 25 5 0 11 -4 15 -9z m-14 -46 c0 -5 -7
-12 -16 -13 -23 -5 -47 6 -40 19 8 13 56 8 56 -6z m-40 -40 c0 -5 -7 -12 -16
-13 -23 -5 -47 6 -40 19 8 13 56 8 56 -6z m54 6 c7 -12 -12 -24 -25 -16 -11 7
-4 25 10 25 5 0 11 -4 15 -9z m-14 -46 c0 -5 -7 -12 -16 -13 -23 -5 -47 6 -40
19 8 13 56 8 56 -6z"/>
</g>
</svg>
