<?xml version="1.0" standalone="no"?>
<!DOCTYPE svg PUBLIC "-//W3C//DTD SVG 20010904//EN"
 "http://www.w3.org/TR/2001/REC-SVG-20010904/DTD/svg10.dtd">
<svg version="1.0" xmlns="http://www.w3.org/2000/svg"
 width="32.000000pt" height="32.000000pt" viewBox="0 0 32.000000 32.000000"
 preserveAspectRatio="xMidYMid meet">

<g transform="translate(0.000000,32.000000) scale(0.100000,-0.100000)"
fill="#000000" stroke="none">
<path d="M0 160 l0 -160 45 0 c25 0 44 3 42 8 -1 4 3 7 8 7 5 0 9 -3 8 -7 -2
-5 4 -8 12 -8 8 0 14 6 12 13 -1 7 9 12 28 12 19 0 29 -5 28 -13 -2 -7 8 -12
26 -12 23 0 30 5 33 22 2 18 11 24 35 26 28 3 32 0 36 -25 2 -15 4 46 4 137
-1 91 -2 134 -4 97 l-4 -68 -32 3 c-32 3 -32 3 -35 66 l-3 62 -119 0 -120 0 0
-160z m151 135 c0 -5 -7 -12 -16 -13 -23 -5 -47 6 -40 19 8 13 56 8 56 -6z
m-47 -46 c-3 -5 -10 -7 -15 -3 -5 3 -7 10 -3 15 3 5 10 7 15 3 5 -3 7 -10 3
-15z m77 6 c0 -5 -7 -12 -16 -13 -23 -5 -47 6 -40 19 8 13 56 8 56 -6z m-30
-40 c0 -5 -7 -12 -16 -13 -23 -5 -47 6 -40 19 8 13 56 8 56 -6z m-47 -46 c-3
-5 -10 -7 -15 -3 -5 3 -7 10 -3 15 3 5 10 7 15 3 5 -3 7 -10 3 -15z m77 6 c0
-5 -7 -12 -16 -13 -23 -5 -47 6 -40 19 8 13 56 8 56 -6z m129 -56 l0 -60 -32
3 c-31 3 -33 5 -36 47 -4 59 2 71 38 71 l30 0 0 -61z m-159 16 c0 -5 -7 -12
-16 -13 -23 -5 -47 6 -40 19 8 13 56 8 56 -6z m-47 -46 c-3 -5 -10 -7 -15 -3
-5 3 -7 10 -3 15 3 5 10 7 15 3 5 -3 7 -10 3 -15z m77 6 c0 -5 -7 -12 -16 -13
-23 -5 -47 6 -40 19 8 13 56 8 56 -6z m-30 -40 c0 -5 -7 -12 -16 -13 -23 -5
-47 6 -40 19 8 13 56 8 56 -6z"/>
</g>
</svg>
