<?xml version="1.0" standalone="no"?>
<!DOCTYPE svg PUBLIC "-//W3C//DTD SVG 20010904//EN"
 "http://www.w3.org/TR/2001/REC-SVG-20010904/DTD/svg10.dtd">
<svg version="1.0" xmlns="http://www.w3.org/2000/svg"
 width="32.000000pt" height="32.000000pt" viewBox="0 0 32.000000 32.000000"
 preserveAspectRatio="xMidYMid meet">

<g transform="translate(0.000000,32.000000) scale(0.100000,-0.100000)"
fill="#000000" stroke="none">
<path d="M2 163 l-2 -163 163 2 c89 1 143 3 119 5 -42 4 -43 5 -40 36 3 29 6
32 41 35 36 3 37 4 37 41 0 31 -4 40 -21 44 -23 6 -17 27 7 27 8 0 14 3 14 8
0 4 -12 7 -27 7 -16 0 -28 5 -28 10 0 6 12 10 28 10 26 0 27 2 27 47 l0 48
-119 0 -120 0 -3 -37 c-3 -35 -6 -38 -35 -41 -31 -3 -32 -2 -36 40 -2 24 -4
-30 -5 -119z m229 132 c0 -5 -7 -12 -16 -13 -23 -5 -47 6 -40 19 8 13 56 8 56
-6z m-40 -40 c0 -5 -7 -12 -16 -13 -23 -5 -47 6 -40 19 8 13 56 8 56 -6z
m-116 -90 l0 -60 -32 -3 -33 -3 0 66 0 66 33 -3 32 -3 0 -60z m150 45 c4 -6
-5 -10 -20 -10 -15 0 -24 4 -20 10 3 6 12 10 20 10 8 0 17 -4 20 -10z m-34
-35 c0 -5 -7 -12 -16 -13 -23 -5 -47 6 -40 19 8 13 56 8 56 -6z m74 5 c8 -13
-20 -24 -41 -16 -20 8 -9 26 16 26 10 0 22 -5 25 -10z m-35 -40 c0 -5 -11 -10
-25 -10 -14 0 -25 5 -25 10 0 6 11 10 25 10 14 0 25 -4 25 -10z m80 0 c0 -5
-11 -10 -25 -10 -14 0 -25 5 -25 10 0 6 11 10 25 10 14 0 25 -4 25 -10z m-222
-92 l3 -38 -40 0 c-40 0 -41 1 -41 33 0 19 3 37 7 41 4 4 21 6 38 4 27 -3 30
-7 33 -40z m140 -5 l3 -33 -65 0 c-66 0 -66 0 -66 28 0 40 6 43 70 40 54 -3
55 -4 58 -35z"/>
</g>
</svg>
