<?xml version="1.0" standalone="no"?>
<!DOCTYPE svg PUBLIC "-//W3C//DTD SVG 20010904//EN"
 "http://www.w3.org/TR/2001/REC-SVG-20010904/DTD/svg10.dtd">
<svg version="1.0" xmlns="http://www.w3.org/2000/svg"
 width="32.000000pt" height="32.000000pt" viewBox="0 0 32.000000 32.000000"
 preserveAspectRatio="xMidYMid meet">

<g transform="translate(0.000000,32.000000) scale(0.100000,-0.100000)"
fill="#000000" stroke="none">
<path d="M0 256 c0 -56 2 -64 21 -69 23 -6 17 -27 -7 -27 -10 0 -14 -12 -14
-39 0 -33 4 -40 23 -43 17 -2 23 -11 25 -35 3 -28 0 -32 -25 -36 -15 -2 46 -4
137 -4 91 1 134 2 97 4 l-68 4 3 32 c3 32 3 32 66 35 l62 3 0 38 c0 31 -4 40
-21 44 -23 6 -17 27 7 27 8 0 14 3 14 8 0 4 -12 7 -27 7 -16 0 -28 5 -28 10 0
6 12 10 28 10 26 0 27 2 27 47 l0 48 -160 0 -160 0 0 -64z m151 -41 c0 -5 -7
-12 -16 -13 -23 -5 -47 6 -40 19 8 13 56 8 56 -6z m-86 -5 c4 -6 -5 -10 -20
-10 -15 0 -24 4 -20 10 3 6 12 10 20 10 8 0 17 -4 20 -10z m160 0 c4 -6 -5
-10 -20 -10 -15 0 -24 4 -20 10 3 6 12 10 20 10 8 0 17 -4 20 -10z m-120 -30
c8 -13 -20 -24 -41 -16 -20 8 -9 26 16 26 10 0 22 -5 25 -10z m90 -5 c0 -12
-40 -19 -61 -11 -9 3 -12 11 -9 16 8 14 70 9 70 -5z m70 5 c8 -13 -20 -24 -41
-16 -20 8 -9 26 16 26 10 0 22 -5 25 -10z m-195 -40 c0 -5 -11 -10 -25 -10
-14 0 -25 5 -25 10 0 6 11 10 25 10 14 0 25 -4 25 -10z m80 0 c0 -5 -11 -10
-25 -10 -14 0 -25 5 -25 10 0 6 11 10 25 10 14 0 25 -4 25 -10z m80 0 c0 -5
-11 -10 -25 -10 -14 0 -25 5 -25 10 0 6 11 10 25 10 14 0 25 -4 25 -10z m80 0
c0 -5 -11 -10 -25 -10 -14 0 -25 5 -25 10 0 6 11 10 25 10 14 0 25 -4 25 -10z
m-132 -97 l3 -33 -60 0 c-60 0 -61 0 -61 28 0 39 7 43 65 40 48 -3 50 -4 53
-35z"/>
</g>
</svg>
