<?xml version="1.0" standalone="no"?>
<!DOCTYPE svg PUBLIC "-//W3C//DTD SVG 20010904//EN"
 "http://www.w3.org/TR/2001/REC-SVG-20010904/DTD/svg10.dtd">
<svg version="1.0" xmlns="http://www.w3.org/2000/svg"
 width="32.000000pt" height="32.000000pt" viewBox="0 0 32.000000 32.000000"
 preserveAspectRatio="xMidYMid meet">

<g transform="translate(0.000000,32.000000) scale(0.100000,-0.100000)"
fill="#000000" stroke="none">
<path d="M0 256 c0 -56 2 -64 21 -69 23 -6 17 -27 -7 -27 -20 0 -19 -76 1 -84
22 -8 20 -63 -2 -69 -10 -3 55 -5 145 -6 l162 -1 -2 163 c-1 89 -3 143 -5 119
-4 -42 -5 -43 -36 -40 -29 3 -32 6 -35 41 l-3 37 -120 0 -119 0 0 -64z m151
39 c0 -5 -7 -12 -16 -13 -23 -5 -47 6 -40 19 8 13 56 8 56 -6z m30 -40 c0 -5
-7 -12 -16 -13 -23 -5 -47 6 -40 19 8 13 56 8 56 -6z m-30 -40 c0 -5 -7 -12
-16 -13 -23 -5 -47 6 -40 19 8 13 56 8 56 -6z m159 -51 l0 -65 -32 3 c-32 3
-33 5 -36 52 -4 64 2 76 38 76 l30 0 0 -66z m-245 46 c4 -6 -5 -10 -20 -10
-15 0 -24 4 -20 10 3 6 12 10 20 10 8 0 17 -4 20 -10z m40 -30 c8 -13 -20 -24
-41 -16 -20 8 -9 26 16 26 10 0 22 -5 25 -10z m76 -5 c0 -5 -7 -12 -16 -13
-23 -5 -47 6 -40 19 8 13 56 8 56 -6z m-111 -35 c0 -5 -11 -10 -25 -10 -14 0
-25 5 -25 10 0 6 11 10 25 10 14 0 25 -4 25 -10z m80 0 c0 -5 -11 -10 -25 -10
-14 0 -25 5 -25 10 0 6 11 10 25 10 14 0 25 -4 25 -10z m158 -92 l3 -38 -40 0
c-40 0 -41 1 -41 33 0 19 3 37 7 41 4 4 21 6 38 4 27 -3 30 -7 33 -40z m-90
-5 l3 -33 -90 0 -91 0 0 28 c0 16 3 32 7 36 4 4 43 5 88 4 l80 -3 3 -32z"/>
</g>
</svg>
